<svg xmlns="http://www.w3.org/2000/svg" viewBox="0 0 24 24" width="64" height="64">
  <rect x="0.75" y="0.75" width="22.5" height="22.5" rx="6" fill="#090d16" stroke="#f59e0b" stroke-width="1.5" />
  <g fill="none" stroke="#fbbf24" stroke-width="1.5" stroke-linecap="round" stroke-linejoin="round" transform="translate(2, 2) scale(0.833)">
    <path d="M19 17h2c.6 0 1-.4 1-1v-3c0-.9-.7-1.7-1.5-1.9C18.7 10.6 16 10 16 10s-1.3-1.4-2.2-2.3c-.5-.4-1.1-.7-1.8-.7H5c-.6 0-1.1.2-1.4.7L1.3 10.4C.5 11.2 0 12.3 0 13.4V16c0 .6.4 1 1 1h2" />
    <circle cx="7" cy="17" r="2" />
    <path d="M9 17h6" />
    <circle cx="17" cy="17" r="2" />
  </g>
</svg>
